# xmcd CD database file
# Generated: Sa Okt 8 15:13:52 2005 by KSCD
# 
# Track frame offsets:
#       182
#       21327
#       49605
#       67925
#       86450
#       106305
#       130002
#       162647
#       193977
#
# Disc length: 2849 seconds
#
# Revision: 1
# Processed by: cddbd v1.5.1PL0 Copyright (c) Steve Scherf et al.
# Submitted via: Kscd 1.3.3
#
DISCID=750b1f09
DTITLE=rory gallagher - tattoo'lady
DYEAR=1900
DGENRE=
TTITLE0=01
TTITLE1=
TTITLE2=
TTITLE3=
TTITLE4=
TTITLE5=
TTITLE6=
TTITLE7=
TTITLE8=
EXTD=
EXTT0=
EXTT1=
EXTT2=
EXTT3=
EXTT4=
EXTT5=
EXTT6=
EXTT7=
EXTT8=
PLAYORDER=
